<svg width="20" height="14" viewBox="0 0 20 14" fill="none" xmlns="http://www.w3.org/2000/svg">
<path d="M16.4304 1.99843C16.1411 2.04777 15.8629 2.26085 15.7351 2.53224C15.6678 2.67354 15.6633 2.69821 15.6633 2.92923C15.6633 3.16025 15.6678 3.18492 15.7329 3.32398C15.8203 3.5079 15.9325 3.63575 16.0985 3.73668C16.3317 3.87574 16.5874 3.91386 16.8476 3.84658C17.036 3.79948 17.1436 3.73892 17.2805 3.61107C17.8367 3.08399 17.5474 2.14198 16.7848 2.00067C16.639 1.97376 16.5874 1.97376 16.4304 1.99843ZM16.7758 2.38421C17.0472 2.46495 17.2109 2.80363 17.1235 3.09969C17.0808 3.24772 16.9552 3.40248 16.8319 3.45856C16.722 3.5079 16.5111 3.51463 16.408 3.47201C16.1119 3.34641 15.9796 2.9539 16.1321 2.65336C16.2555 2.41112 16.5111 2.30346 16.7758 2.38421Z" fill="black"/>
<path d="M5.4895 3.12212C4.7628 3.19838 4.47571 3.50341 4.41964 4.25478C4.41067 4.37814 4.40618 4.49477 4.41067 4.5172C4.4174 4.55084 4.45553 4.55533 4.80766 4.55533H5.19568L5.20914 4.35795C5.22933 4.10899 5.25624 4.02376 5.34147 3.93405C5.45362 3.81517 5.51417 3.80396 6.09733 3.80396C6.60647 3.8062 6.62889 3.80844 6.73431 3.86003C6.90029 3.94078 6.93393 4.03498 6.92271 4.38487C6.91599 4.61813 6.90701 4.6742 6.85991 4.7684C6.76795 4.95456 6.7231 4.96802 6.20947 4.98148L5.77211 4.99269L5.76538 5.29324C5.76089 5.51977 5.76762 5.59828 5.78781 5.61398C5.80351 5.62295 5.98967 5.63192 6.2005 5.63192C6.63114 5.63192 6.76795 5.65883 6.8644 5.75976C6.95636 5.85845 6.99449 6.00648 6.99449 6.2689C6.99449 6.54702 6.95411 6.70402 6.85991 6.78253C6.73431 6.88794 6.66478 6.89916 6.06368 6.89916C5.52763 6.89916 5.49847 6.89691 5.39979 6.84757C5.24503 6.77131 5.20017 6.67262 5.17101 6.3474L5.14858 6.0805H4.76056C4.52281 6.0805 4.3703 6.08947 4.36581 6.10293C4.34787 6.15676 4.39048 6.64571 4.42637 6.78701C4.47571 6.98214 4.57216 7.17728 4.67309 7.28942C4.77178 7.39932 4.99607 7.50922 5.20465 7.5496C5.44689 7.59894 6.18256 7.61688 6.57282 7.58548C7.08645 7.54287 7.32868 7.4554 7.5283 7.23783C7.71894 7.027 7.78623 6.7915 7.78847 6.316C7.79072 5.8921 7.75034 5.72612 7.59334 5.55118C7.5126 5.45697 7.28831 5.34034 7.18513 5.3381C7.14925 5.3381 7.09766 5.32913 7.07523 5.32016C7.04159 5.3067 7.06177 5.29549 7.16495 5.26633C7.51484 5.16764 7.66736 4.95681 7.71446 4.50374C7.79072 3.77256 7.55297 3.33744 6.99449 3.17819C6.73207 3.10417 5.93584 3.07502 5.4895 3.12212Z" fill="black"/>
<path d="M9.38316 3.12438C9.17008 3.14681 8.90991 3.2141 8.78431 3.27914C8.66319 3.3397 8.48376 3.51016 8.41871 3.62455C8.34694 3.75015 8.27965 3.97668 8.2505 4.18079C8.21461 4.45891 8.22134 6.26668 8.26171 6.54031C8.3447 7.12571 8.54207 7.38813 8.99289 7.51597C9.25307 7.58775 9.82725 7.62139 10.287 7.58775C10.8545 7.54737 11.1079 7.46214 11.3098 7.24683C11.5251 7.01581 11.5924 6.75563 11.5924 6.15229C11.5924 5.57587 11.5274 5.33812 11.3121 5.14075C11.1035 4.94786 10.8859 4.89403 10.2579 4.87608C9.73081 4.86263 9.53568 4.88506 9.33157 4.98374C9.2284 5.03309 9.16784 5.08243 9.1185 5.15196C9.08037 5.20579 9.04224 5.25065 9.03102 5.25065C9.00859 5.25065 9.01084 4.69217 9.03327 4.36246C9.0557 4.04621 9.10504 3.94304 9.27101 3.86005C9.38092 3.80398 9.39213 3.80398 9.91024 3.80398C10.4283 3.80398 10.4396 3.80398 10.5495 3.86005C10.6773 3.9251 10.7334 4.01481 10.7558 4.192C10.7625 4.25256 10.776 4.3176 10.7872 4.3333C10.8007 4.35573 10.8926 4.3647 11.1483 4.36919C11.3367 4.37143 11.5117 4.36695 11.5341 4.36022C11.5722 4.349 11.5745 4.33106 11.5633 4.15387C11.5229 3.60212 11.3121 3.30381 10.8747 3.17821C10.6078 3.1042 9.82501 3.07504 9.38316 3.12438ZM10.231 5.56465C10.5674 5.58933 10.6706 5.63418 10.7446 5.78446C10.7917 5.87866 10.7962 5.92127 10.7962 6.20388C10.7962 6.5762 10.767 6.7018 10.6594 6.796C10.5472 6.89693 10.4014 6.91712 9.86762 6.90591C9.42577 6.89918 9.4011 6.89693 9.27999 6.84086C9.17457 6.79152 9.14541 6.7646 9.10055 6.67265C9.05345 6.5762 9.04672 6.52686 9.04 6.25098C9.03551 6.07828 9.03775 5.90557 9.04672 5.8652C9.06467 5.76876 9.15887 5.65661 9.2598 5.614C9.40783 5.5512 9.80482 5.53101 10.231 5.56465Z" fill="black"/>
<path d="M13.2455 3.11987C12.8126 3.16697 12.5031 3.28584 12.3236 3.47873C12.0298 3.79274 11.9603 4.21889 11.9805 5.56238C11.9872 6.10292 12.0007 6.36758 12.0253 6.49543C12.1644 7.22886 12.4986 7.51146 13.2971 7.58323C13.629 7.61239 13.9811 7.61239 14.3064 7.58323C14.9344 7.52492 15.2641 7.341 15.4525 6.94401C15.6095 6.61206 15.6184 6.5201 15.6184 5.35155C15.6184 4.36468 15.6162 4.31085 15.5691 4.11123C15.4345 3.5505 15.1609 3.27687 14.6204 3.16248C14.3714 3.1109 13.5774 3.08622 13.2455 3.11987ZM14.4858 3.84657C14.6944 3.92283 14.7841 4.07086 14.8222 4.38935C14.8491 4.64055 14.8514 6.04461 14.8222 6.316C14.7841 6.69056 14.663 6.83635 14.3445 6.88794C14.1561 6.92158 13.2769 6.90588 13.1602 6.86775C12.9539 6.80271 12.8462 6.65916 12.8036 6.3945C12.7924 6.31375 12.7812 5.85396 12.7812 5.35155C12.7812 4.84914 12.7924 4.38935 12.8036 4.3086C12.853 4.00357 12.9943 3.85554 13.2769 3.81517C13.3554 3.80395 13.638 3.79947 13.9026 3.80395C14.2794 3.80844 14.4073 3.81965 14.4858 3.84657Z" fill="black"/>
<path d="M2.06686 6.30033C1.77753 6.58742 1.59361 6.87451 1.51062 7.17281C1.48146 7.27823 1.47473 7.37019 1.48146 7.55411C1.49043 7.7627 1.50165 7.82101 1.56221 7.97128C1.82238 8.60827 2.53787 9.18469 3.6638 9.66467C3.98454 9.80149 4.58115 10.0123 4.88618 10.0953C5.56129 10.2792 5.92464 10.36 6.61321 10.4788C7.28832 10.5955 8.08007 10.6829 8.73275 10.7121C8.90545 10.7188 9.06919 10.73 9.09834 10.7368L9.14769 10.7457V11.3872C9.14769 11.7797 9.15666 12.0242 9.16787 12.0197C9.18133 12.0152 9.57159 11.6945 10.0404 11.3065C10.5069 10.9185 10.9936 10.5147 11.117 10.4138C11.2426 10.3106 11.3457 10.2142 11.3457 10.1985C11.3457 10.1828 11.1013 9.96971 10.8052 9.72299C10.5069 9.47851 10.1009 9.13983 9.9013 8.97386C9.3002 8.47145 9.1746 8.36828 9.16114 8.36828C9.15442 8.36828 9.14544 8.64864 9.1432 8.98956L9.13647 9.61309L8.9234 9.60636C8.39632 9.5929 7.55747 9.51664 6.91376 9.42244C5.43345 9.20488 4.13257 8.81461 3.3498 8.35033C2.67244 7.94886 2.28666 7.56756 2.13415 7.14814C2.04219 6.89245 2.05564 6.59639 2.17228 6.32276C2.2104 6.23528 2.23732 6.15902 2.23283 6.15454C2.22611 6.15005 2.15433 6.2151 2.06686 6.30033Z" fill="black"/>
<path d="M17.7963 6.26443C18.0228 6.70852 17.951 7.17729 17.5922 7.61017C17.2984 7.96903 16.695 8.37051 16.0222 8.66209C15.3852 8.93572 14.5688 9.16225 13.5213 9.35514C13.149 9.42467 12.0769 9.557 11.8952 9.557C11.7158 9.557 11.727 9.51887 11.727 10.1357V10.6852L11.8907 10.6717C12.7341 10.6022 13.7277 10.4452 14.5239 10.2501C16.6547 9.72971 18.052 8.91778 18.4378 7.97128C18.4983 7.821 18.5095 7.76269 18.5185 7.5541C18.5252 7.37018 18.5185 7.27822 18.4893 7.1728C18.4378 6.98889 18.3166 6.75114 18.1888 6.58516C18.0766 6.43938 17.7896 6.1478 17.7582 6.1478C17.7469 6.1478 17.7626 6.19939 17.7963 6.26443Z" fill="black"/>
</svg>
