<svg width="40" height="40" viewBox="0 0 40 40" fill="none" xmlns="http://www.w3.org/2000/svg">
<path fill-rule="evenodd" clip-rule="evenodd" d="M18.3333 5.83325C17.1827 5.83325 16.25 6.76599 16.25 7.91659H13.75C13.75 5.38528 15.802 3.33325 18.3333 3.33325C19.6467 3.33325 20.831 3.88566 21.6667 4.77081C22.5023 3.88566 23.6866 3.33325 25 3.33325C27.5313 3.33325 29.5833 5.38528 29.5833 7.91659V10.8333H36.6666V13.3333H29.5833V18.1719C30.1347 18.0007 30.7069 17.9166 31.2736 17.9166C32.5905 17.9166 33.9374 18.3707 34.9823 19.3172C35.4292 19.722 36.0236 19.9575 36.6534 19.9941V22.7731C35.3924 22.735 34.1174 22.2801 33.1182 21.3752C32.6305 20.9333 31.967 20.6933 31.2736 20.6933C30.6508 20.6933 30.0522 20.8869 29.5833 21.2465V21.2499H29.5788C29.5273 21.2897 29.4772 21.3314 29.429 21.3752C28.384 22.3217 27.0372 22.7758 25.7203 22.7758C24.4033 22.7758 23.0565 22.3217 22.0115 21.3752C21.5238 20.9333 20.8603 20.6933 20.1669 20.6933C19.4735 20.6933 18.81 20.9333 18.3223 21.3752C17.2773 22.3217 15.9305 22.7758 14.6135 22.7758C13.2966 22.7758 11.9498 22.3217 10.9048 21.3752C10.4171 20.9333 9.75359 20.6933 9.06019 20.6933C8.36679 20.6933 7.7033 20.9333 7.21555 21.3752C6.17058 22.3217 4.82374 22.7758 3.50683 22.7758H3.43726C3.41356 22.7757 3.40155 22.776 3.39164 22.7763C3.37738 22.7766 3.36745 22.7769 3.33331 22.7758V19.9931C3.39592 19.9971 3.45889 19.9991 3.52211 19.9991C4.20997 19.9956 4.8673 19.7558 5.35147 19.3172C6.39645 18.3707 7.74328 17.9166 9.06019 17.9166C10.3771 17.9166 11.7239 18.3707 12.7689 19.3172C13.2567 19.759 13.9201 19.9991 14.6135 19.9991C15.307 19.9991 15.9704 19.759 16.4582 19.3172C17.5032 18.3707 18.85 17.9166 20.1669 17.9166C20.2501 17.9166 20.3333 17.9184 20.4166 17.922V13.3333H3.33331V10.8333H20.4166V7.91659C20.4166 6.76599 19.4839 5.83325 18.3333 5.83325ZM27.0833 13.3333V19.6588C26.6771 19.8813 26.206 19.9991 25.7203 19.9991C25.0268 19.9991 24.3634 19.759 23.8756 19.3172C23.5779 19.0475 23.2557 18.8178 22.9166 18.6272V13.3333H27.0833ZM22.9166 7.91659V10.8333H27.0833V7.91659C27.0833 6.76599 26.1506 5.83325 25 5.83325C23.8494 5.83325 22.9166 6.76599 22.9166 7.91659Z" fill="#0582CA"/>
<path d="M3.33331 29.4424V26.6598C3.39592 26.6637 3.45889 26.6657 3.52211 26.6657C4.20997 26.6622 4.8673 26.4224 5.35147 25.9839C6.39645 25.0373 7.74328 24.5833 9.06019 24.5833C10.3771 24.5833 11.7239 25.0373 12.7689 25.9839C13.2567 26.4257 13.9201 26.6658 14.6135 26.6658C15.307 26.6658 15.9704 26.4257 16.4582 25.9839C17.5032 25.0373 18.85 24.5833 20.1669 24.5833C21.4838 24.5833 22.8306 25.0373 23.8756 25.9839C24.3634 26.4257 25.0268 26.6658 25.7203 26.6658C26.4137 26.6658 27.0771 26.4257 27.5649 25.9839C28.6099 25.0373 29.9567 24.5833 31.2736 24.5833C32.5905 24.5833 33.9374 25.0373 34.9823 25.9839C35.4292 26.3887 36.0236 26.6241 36.6534 26.6607V29.4398C35.3924 29.4016 34.1174 28.9468 33.1182 28.0418C32.6305 27.6 31.967 27.3599 31.2736 27.3599C30.5802 27.3599 29.9167 27.6 29.429 28.0418C28.384 28.9884 27.0372 29.4424 25.7203 29.4424C24.4033 29.4424 23.0565 28.9884 22.0115 28.0418C21.5238 27.6 20.8603 27.3599 20.1669 27.3599C19.4735 27.3599 18.81 27.6 18.3223 28.0418C17.2773 28.9884 15.9305 29.4424 14.6135 29.4424C13.2966 29.4424 11.9498 28.9884 10.9048 28.0418C10.4171 27.6 9.75359 27.3599 9.06019 27.3599C8.36679 27.3599 7.7033 27.6 7.21555 28.0418C6.17058 28.9884 4.82374 29.4424 3.50683 29.4424H3.43726C3.41356 29.4424 3.40155 29.4427 3.39164 29.4429C3.37738 29.4433 3.36746 29.4436 3.33331 29.4424Z" fill="#0582CA"/>
<path d="M3.33331 36.5258V33.7431C3.39592 33.7471 3.45889 33.7491 3.52211 33.7491C4.20997 33.7456 4.8673 33.5058 5.35147 33.0672C6.39645 32.1207 7.74328 31.6666 9.06019 31.6666C10.3771 31.6666 11.7239 32.1207 12.7689 33.0672C13.2567 33.509 13.9201 33.7491 14.6135 33.7491C15.307 33.7491 15.9704 33.509 16.4582 33.0672C17.5032 32.1207 18.85 31.6666 20.1669 31.6666C21.4838 31.6666 22.8306 32.1207 23.8756 33.0672C24.3634 33.509 25.0268 33.7491 25.7203 33.7491C26.4137 33.7491 27.0771 33.509 27.5649 33.0672C28.6099 32.1207 29.9567 31.6666 31.2736 31.6666C32.5905 31.6666 33.9374 32.1207 34.9823 33.0672C35.4292 33.472 36.0236 33.7075 36.6534 33.7441V36.5231C35.3924 36.485 34.1174 36.0301 33.1182 35.1252C32.6305 34.6833 31.967 34.4433 31.2736 34.4433C30.5802 34.4433 29.9167 34.6833 29.429 35.1252C28.384 36.0717 27.0372 36.5258 25.7203 36.5258C24.4033 36.5258 23.0565 36.0717 22.0115 35.1252C21.5238 34.6833 20.8603 34.4433 20.1669 34.4433C19.4735 34.4433 18.81 34.6833 18.3223 35.1252C17.2773 36.0717 15.9305 36.5258 14.6135 36.5258C13.2966 36.5258 11.9498 36.0717 10.9048 35.1252C10.4171 34.6833 9.75359 34.4433 9.06019 34.4433C8.36679 34.4433 7.7033 34.6833 7.21555 35.1252C6.17058 36.0717 4.82374 36.5258 3.50683 36.5258H3.43726C3.41356 36.5257 3.40155 36.526 3.39164 36.5263C3.37738 36.5266 3.36746 36.5269 3.33331 36.5258Z" fill="#0582CA"/>
</svg>
