<svg width="40" height="40" viewBox="0 0 40 40" fill="none" xmlns="http://www.w3.org/2000/svg">
<path fill-rule="evenodd" clip-rule="evenodd" d="M10.4167 7.49998C10.4167 5.88915 11.7225 4.58331 13.3333 4.58331H26.6667C28.2775 4.58331 29.5833 5.88915 29.5833 7.49998V22.9166H33.3333V25.4166H32.0833V33.75H33.3333V36.25H6.66666V33.75H7.91666V25.4166H6.66666V22.9166H10.4167V7.49998ZM12.0833 25.4166V33.75H10.4167V25.4166H12.0833ZM14.5833 33.75V25.4166H16.25V33.75H14.5833ZM18.75 33.75H21.25V25.4166H18.75V33.75ZM23.75 25.4166V33.75H25.4167V25.4166H23.75ZM27.0833 22.9166V17.0833H21.25V22.9166H27.0833ZM18.75 22.9166H12.9167V17.0833H18.75V22.9166ZM21.25 14.5833H27.0833V7.49998C27.0833 7.26986 26.8968 7.08331 26.6667 7.08331H21.25V14.5833ZM18.75 7.08331V14.5833H12.9167V7.49998C12.9167 7.26986 13.1032 7.08331 13.3333 7.08331H18.75ZM27.9167 25.4166V33.75H29.5833V25.4166H27.9167Z" fill="#0582CA"/>
</svg>
