<svg width="40" height="40" viewBox="0 0 40 40" fill="none" xmlns="http://www.w3.org/2000/svg">
<path fill-rule="evenodd" clip-rule="evenodd" d="M16.6666 5C16.6666 5.90199 16.4566 6.7916 16.0533 7.59836L14.6441 10.4167H7.08331V12.5C7.08331 13.2092 7.14048 13.9051 7.25045 14.5833H5.83331V17.0833H7.9201C9.06279 20.0934 11.2982 22.5654 14.142 24.015L9.69836 33.6428L11.9683 34.6905L13.9408 30.4167H18.75V34.1667H21.25V30.4167H26.0592L28.0317 34.6905L30.3016 33.6428L25.858 24.015C28.7017 22.5654 30.9372 20.0934 32.0799 17.0833H34.1666V14.5833H32.7495C32.8595 13.9051 32.9166 13.2092 32.9166 12.5V10.4167H27.4391L28.2893 8.7164C28.8663 7.56249 29.1666 6.2901 29.1666 5H26.6666C26.6666 5.90199 26.4566 6.7916 26.0533 7.59836L24.5833 10.5382C23.7613 12.1823 23.3333 13.9952 23.3333 15.8333H25.8333C25.8333 14.8529 25.9876 13.8405 26.2881 12.9167H30.4085C30.1898 18.4765 25.6134 22.9167 20 22.9167C14.3866 22.9167 9.8102 18.4765 9.59149 12.9167H13.6982C13.4567 13.8668 13.3333 14.8464 13.3333 15.8333H15.8333C15.8333 14.4558 16.138 13.015 16.7244 11.8458L18.2893 8.7164C18.8663 7.56249 19.1666 6.2901 19.1666 5H16.6666ZM23.5266 24.9294C22.7922 25.1373 22.0313 25.2819 21.25 25.357V27.9167H24.9053L23.5266 24.9294ZM18.75 27.9167V25.357C17.9687 25.2819 17.2077 25.1373 16.4734 24.9294L15.0946 27.9167H18.75Z" fill="#0582CA"/>
<path d="M21.0533 7.59836C21.4566 6.7916 21.6666 5.90199 21.6666 5H24.1666C24.1666 6.2901 23.8663 7.56249 23.2893 8.7164L21.7244 11.8458C21.138 13.015 20.8333 14.4558 20.8333 15.8333H18.3333C18.3333 13.9952 18.7613 12.1823 19.5833 10.5382L21.0533 7.59836Z" fill="#0582CA"/>
</svg>
