<svg width="40" height="40" viewBox="0 0 40 40" fill="none" xmlns="http://www.w3.org/2000/svg">
<path fill-rule="evenodd" clip-rule="evenodd" d="M10.7917 13.9289L6.75106 28.0712C6.41846 27.8393 6.09046 27.5978 5.76746 27.3466L4.2326 29.3199C13.5068 36.5332 26.4933 36.5332 35.7675 29.3199L34.2326 27.3466C33.9152 27.5934 33.593 27.8309 33.2663 28.0591L30.5002 17.9166H30.8333C32.4442 17.9166 33.75 16.6107 33.75 14.9999V4.58325H30C26.0531 4.58325 22.7808 7.4716 22.1815 11.2499H11.9371C9.24695 11.2499 6.85858 12.9714 6.00787 15.5235L4.64749 19.6046L7.0192 20.3952L8.37958 16.3141C8.76466 15.1588 9.67483 14.2873 10.7917 13.9289ZM30 7.08325C27.0085 7.08325 24.5833 9.50838 24.5833 12.4999L24.5833 15.8333C24.5833 17.9312 23.1737 19.6999 21.25 20.2441V22.0833H27.5967L29.9659 29.9807C30.3305 29.807 30.6916 29.6232 31.0488 29.4294L26.2941 11.9955L28.706 11.3377L29.8184 15.4166H30.8333C31.0635 15.4166 31.25 15.23 31.25 14.9999V7.08325H30ZM27.6425 30.9362L25.7366 24.5833H21.25V25.8333H18.75V24.5833H15.0967L13.1158 31.1862C17.8488 32.6566 22.9514 32.5733 27.6425 30.9362ZM10.7673 30.3144L13.2366 22.0833H18.75V20.2441C16.8262 19.6999 15.4167 17.9312 15.4167 15.8333V13.7499H13.4429L8.96147 29.4349C9.55327 29.7557 10.1558 30.0488 10.7673 30.3144ZM17.9167 13.7499V15.8333C17.9167 16.9838 18.8494 17.9166 20 17.9166C21.1506 17.9166 22.0833 16.9838 22.0833 15.8333V13.7499H17.9167Z" fill="#0582CA"/>
</svg>
