<svg width="40" height="40" viewBox="0 0 40 40" fill="none" xmlns="http://www.w3.org/2000/svg">
<path fill-rule="evenodd" clip-rule="evenodd" d="M32.109 22.9167H32.5H35V25.4167H33.75V32.5C33.75 34.1108 32.4442 35.4167 30.8333 35.4167H9.16667C7.55584 35.4167 6.25 34.1108 6.25 32.5V25.4167H5V22.9167H7.5H8.34331C8.39652 21.5164 8.66184 20.1194 9.14222 18.7743L10.8628 13.9566C11.4514 12.3085 13.3487 11.5462 14.914 12.3288L16.3383 13.041C16.5795 13.1616 16.87 13.0247 16.9306 12.762L18.1997 7.26274C18.7419 4.91327 21.7387 4.19904 23.2823 6.05138L25.9595 9.26398C28.3766 12.1646 30.23 15.4917 31.424 19.0737C31.8415 20.3261 32.0688 21.6207 32.109 22.9167ZM10.8455 22.9167C10.8973 21.8004 11.1136 20.6876 11.4966 19.6151L13.2172 14.7974C13.3013 14.562 13.5723 14.4531 13.7959 14.5649L15.2203 15.277C16.9087 16.1212 18.9421 15.1635 19.3666 13.3241L20.6357 7.82489C20.7131 7.48925 21.1412 7.38721 21.3617 7.65184L24.0389 10.8644C26.2565 13.5256 27.9569 16.578 29.0523 19.8643C29.384 20.8593 29.5683 21.8871 29.6075 22.9167H23.9733L22.6332 20.8108C21.4871 19.0098 18.858 19.0098 17.7119 20.8108L16.3718 22.9167H10.8455ZM19.3351 22.9167H21.01L20.5241 22.153C20.3603 21.8957 19.9848 21.8957 19.821 22.153L19.3351 22.9167ZM8.75 32.5V25.4167H31.25V32.5C31.25 32.7301 31.0635 32.9167 30.8333 32.9167H9.16667C8.93655 32.9167 8.75 32.7301 8.75 32.5Z" fill="#0582CA"/>
</svg>
