<svg width="40" height="40" viewBox="0 0 40 40" fill="none" xmlns="http://www.w3.org/2000/svg">
<path fill-rule="evenodd" clip-rule="evenodd" d="M8.74998 10.8334C8.74998 9.22258 10.0558 7.91675 11.6666 7.91675H13.3333C14.9441 7.91675 16.25 9.22258 16.25 10.8334V18.7501H23.75V10.8334C23.75 9.22258 25.0558 7.91675 26.6666 7.91675H28.3333C29.9441 7.91675 31.25 9.22258 31.25 10.8334V12.0834H31.6666C33.2775 12.0834 34.5833 13.3893 34.5833 15.0001V18.7501H36.6666V21.2501H34.5833V25.0001C34.5833 26.6109 33.2775 27.9167 31.6666 27.9167H31.25V29.1667C31.25 30.7776 29.9441 32.0834 28.3333 32.0834H26.6666C25.0558 32.0834 23.75 30.7776 23.75 29.1667V21.2501H16.25V29.1667C16.25 30.7776 14.9441 32.0834 13.3333 32.0834H11.6666C10.0558 32.0834 8.74998 30.7776 8.74998 29.1667V27.9167H8.33331C6.72248 27.9167 5.41665 26.6109 5.41665 25.0001V21.2501H3.33331V18.7501H5.41665V15.0001C5.41665 13.3893 6.72248 12.0834 8.33331 12.0834H8.74998V10.8334ZM8.74998 14.5834H8.33331C8.10319 14.5834 7.91665 14.77 7.91665 15.0001V25.0001C7.91665 25.2302 8.10319 25.4167 8.33331 25.4167H8.74998V14.5834ZM31.25 25.4167H31.6666C31.8968 25.4167 32.0833 25.2302 32.0833 25.0001V15.0001C32.0833 14.77 31.8968 14.5834 31.6666 14.5834H31.25V25.4167ZM11.6666 10.4167C11.4365 10.4167 11.25 10.6033 11.25 10.8334V29.1667C11.25 29.3969 11.4365 29.5834 11.6666 29.5834H13.3333C13.5634 29.5834 13.75 29.3969 13.75 29.1667V10.8334C13.75 10.6033 13.5634 10.4167 13.3333 10.4167H11.6666ZM26.6666 10.4167C26.4365 10.4167 26.25 10.6033 26.25 10.8334V29.1667C26.25 29.3969 26.4365 29.5834 26.6666 29.5834H28.3333C28.5634 29.5834 28.75 29.3969 28.75 29.1667V10.8334C28.75 10.6033 28.5634 10.4167 28.3333 10.4167H26.6666Z" fill="#0582CA"/>
</svg>
