<svg width="40" height="40" viewBox="0 0 40 40" fill="none" xmlns="http://www.w3.org/2000/svg">
<path d="M19.1666 16.2499C18.4763 16.2499 17.9166 16.8096 17.9166 17.4999C17.9166 18.1903 18.4763 18.7499 19.1666 18.7499H20.8333C21.5237 18.7499 22.0833 18.1903 22.0833 17.4999C22.0833 16.8096 21.5237 16.2499 20.8333 16.2499H19.1666Z" fill="#0582CA"/>
<path d="M19.1666 20.4166C18.4763 20.4166 17.9166 20.9762 17.9166 21.6666C17.9166 22.3569 18.4763 22.9166 19.1666 22.9166H20.8333C21.5237 22.9166 22.0833 22.3569 22.0833 21.6666C22.0833 20.9762 21.5237 20.4166 20.8333 20.4166H19.1666Z" fill="#0582CA"/>
<path d="M9.58331 17.4999C9.58331 16.8096 10.143 16.2499 10.8333 16.2499H11.6666C12.357 16.2499 12.9166 16.8096 12.9166 17.4999C12.9166 18.1903 12.357 18.7499 11.6666 18.7499H10.8333C10.143 18.7499 9.58331 18.1903 9.58331 17.4999Z" fill="#0582CA"/>
<path d="M10.8333 20.4166C10.143 20.4166 9.58331 20.9762 9.58331 21.6666C9.58331 22.3569 10.143 22.9166 10.8333 22.9166H11.6666C12.357 22.9166 12.9166 22.3569 12.9166 21.6666C12.9166 20.9762 12.357 20.4166 11.6666 20.4166H10.8333Z" fill="#0582CA"/>
<path d="M9.58331 25.8333C9.58331 25.1429 10.143 24.5833 10.8333 24.5833H11.6666C12.357 24.5833 12.9166 25.1429 12.9166 25.8333C12.9166 26.5236 12.357 27.0833 11.6666 27.0833H10.8333C10.143 27.0833 9.58331 26.5236 9.58331 25.8333Z" fill="#0582CA"/>
<path d="M28.3333 16.2499C27.643 16.2499 27.0833 16.8096 27.0833 17.4999C27.0833 18.1903 27.643 18.7499 28.3333 18.7499H29.1666C29.857 18.7499 30.4166 18.1903 30.4166 17.4999C30.4166 16.8096 29.857 16.2499 29.1666 16.2499H28.3333Z" fill="#0582CA"/>
<path d="M27.0833 21.6666C27.0833 20.9762 27.643 20.4166 28.3333 20.4166H29.1666C29.857 20.4166 30.4166 20.9762 30.4166 21.6666C30.4166 22.3569 29.857 22.9166 29.1666 22.9166H28.3333C27.643 22.9166 27.0833 22.3569 27.0833 21.6666Z" fill="#0582CA"/>
<path d="M28.3333 24.5833C27.643 24.5833 27.0833 25.1429 27.0833 25.8333C27.0833 26.5236 27.643 27.0833 28.3333 27.0833H29.1666C29.857 27.0833 30.4166 26.5236 30.4166 25.8333C30.4166 25.1429 29.857 24.5833 29.1666 24.5833H28.3333Z" fill="#0582CA"/>
<path fill-rule="evenodd" clip-rule="evenodd" d="M7.49998 4.58325C5.88915 4.58325 4.58331 5.88909 4.58331 7.49992V32.4999C4.58331 34.1107 5.88915 35.4166 7.49998 35.4166H32.5C34.1108 35.4166 35.4166 34.1108 35.4166 32.4999V7.49992C35.4166 5.88909 34.1108 4.58325 32.5 4.58325H7.49998ZM7.08331 7.49992C7.08331 7.2698 7.26986 7.08325 7.49998 7.08325H32.5C32.7301 7.08325 32.9166 7.2698 32.9166 7.49992V11.2499H24.857C24.7465 11.2499 24.6405 11.206 24.5624 11.1279L22.0624 8.62788C20.9233 7.48885 19.0766 7.48885 17.9376 8.62788L15.4376 11.1279C15.3594 11.206 15.2535 11.2499 15.143 11.2499H7.08331V7.49992ZM7.08331 13.7499V32.4999C7.08331 32.73 7.26986 32.9166 7.49998 32.9166H15.4166V27.4999C15.4166 25.8891 16.7225 24.5833 18.3333 24.5833H21.6666C23.2775 24.5833 24.5833 25.8891 24.5833 27.4999V32.9166H32.5C32.7301 32.9166 32.9166 32.73 32.9166 32.4999V13.7499H24.857C24.0835 13.7499 23.3416 13.4426 22.7946 12.8956L20.2946 10.3956C20.1319 10.2329 19.8681 10.2329 19.7054 10.3956L17.2054 12.8956C16.6584 13.4426 15.9165 13.7499 15.143 13.7499H7.08331ZM22.0833 32.9166V27.4999C22.0833 27.2698 21.8968 27.0833 21.6666 27.0833H18.3333C18.1032 27.0833 17.9166 27.2698 17.9166 27.4999V32.9166H22.0833Z" fill="#0582CA"/>
</svg>
