<svg width="40" height="40" viewBox="0 0 40 40" fill="none" xmlns="http://www.w3.org/2000/svg">
<path fill-rule="evenodd" clip-rule="evenodd" d="M5.88387 20.8839L7.08333 19.6844V32.5C7.08333 34.1108 8.38916 35.4167 9.99999 35.4167H30C31.6108 35.4167 32.9167 34.1108 32.9167 32.5V19.6845L34.1161 20.8839L35.8839 19.1161L22.0624 5.29464C20.9234 4.15561 19.0766 4.15561 17.9376 5.29464L4.1161 19.1161L5.88387 20.8839ZM20.2946 7.06241C20.1319 6.89969 19.8681 6.89969 19.7054 7.06241L9.58333 17.1844V32.5C9.58333 32.7301 9.76988 32.9167 9.99999 32.9167H14.5833V23.3333C14.5833 21.7225 15.8892 20.4167 17.5 20.4167H22.5C24.1108 20.4167 25.4167 21.7225 25.4167 23.3333V32.9167H30C30.2301 32.9167 30.4167 32.7301 30.4167 32.5V17.1845L20.2946 7.06241ZM22.9167 32.9167V23.3333C22.9167 23.1032 22.7301 22.9167 22.5 22.9167H17.5C17.2699 22.9167 17.0833 23.1032 17.0833 23.3333V32.9167H22.9167Z" fill="#0582CA"/>
</svg>
