<svg width="40" height="40" viewBox="0 0 40 40" fill="none" xmlns="http://www.w3.org/2000/svg">
<path fill-rule="evenodd" clip-rule="evenodd" d="M10.4167 11.6666C10.4167 9.13528 12.4687 7.08325 15 7.08325C17.5313 7.08325 19.5833 9.13528 19.5833 11.6666C19.5833 14.1979 17.5313 16.2499 15 16.2499C12.4687 16.2499 10.4167 14.1979 10.4167 11.6666ZM15 9.58325C13.8494 9.58325 12.9167 10.516 12.9167 11.6666C12.9167 12.8172 13.8494 13.7499 15 13.7499C16.1506 13.7499 17.0833 12.8172 17.0833 11.6666C17.0833 10.516 16.1506 9.58325 15 9.58325Z" fill="#0582CA"/>
<path fill-rule="evenodd" clip-rule="evenodd" d="M20.4167 11.6666C20.4167 9.13528 22.4687 7.08325 25 7.08325C27.5313 7.08325 29.5833 9.13528 29.5833 11.6666C29.5833 14.1979 27.5313 16.2499 25 16.2499C22.4687 16.2499 20.4167 14.1979 20.4167 11.6666ZM25 9.58325C23.8494 9.58325 22.9167 10.516 22.9167 11.6666C22.9167 12.8172 23.8494 13.7499 25 13.7499C26.1506 13.7499 27.0833 12.8172 27.0833 11.6666C27.0833 10.516 26.1506 9.58325 25 9.58325Z" fill="#0582CA"/>
<path fill-rule="evenodd" clip-rule="evenodd" d="M31.6667 15.4166C29.1354 15.4166 27.0833 17.4686 27.0833 19.9999C27.0833 22.5312 29.1354 24.5833 31.6667 24.5833C34.198 24.5833 36.25 22.5312 36.25 19.9999C36.25 17.4686 34.198 15.4166 31.6667 15.4166ZM29.5833 19.9999C29.5833 18.8493 30.5161 17.9166 31.6667 17.9166C32.8173 17.9166 33.75 18.8493 33.75 19.9999C33.75 21.1505 32.8173 22.0833 31.6667 22.0833C30.5161 22.0833 29.5833 21.1505 29.5833 19.9999Z" fill="#0582CA"/>
<path fill-rule="evenodd" clip-rule="evenodd" d="M3.75 19.9999C3.75 17.4686 5.80203 15.4166 8.33333 15.4166C10.8646 15.4166 12.9167 17.4686 12.9167 19.9999C12.9167 22.5312 10.8646 24.5833 8.33333 24.5833C5.80203 24.5833 3.75 22.5312 3.75 19.9999ZM8.33333 17.9166C7.18274 17.9166 6.25 18.8493 6.25 19.9999C6.25 21.1505 7.18274 22.0833 8.33333 22.0833C9.48393 22.0833 10.4167 21.1505 10.4167 19.9999C10.4167 18.8493 9.48393 17.9166 8.33333 17.9166Z" fill="#0582CA"/>
<path fill-rule="evenodd" clip-rule="evenodd" d="M23.8178 18.868C22.0644 15.9875 17.9057 15.9228 16.0637 18.7473L11.674 25.4782C9.30273 29.1141 12.8443 33.7027 16.9624 32.3301L19.9859 31.3222L22.3858 32.1793C26.4525 33.6317 30.0877 29.1685 27.8425 25.4799L23.8178 18.868ZM18.1577 20.113C18.995 18.8291 20.8853 18.8585 21.6823 20.1678L25.707 26.7798C26.7275 28.4564 25.0751 30.4852 23.2267 29.825L20.014 28.6776L16.1718 29.9583C14.3 30.5823 12.6901 28.4965 13.768 26.8439L18.1577 20.113Z" fill="#0582CA"/>
</svg>
