<svg width="24" height="24" viewBox="0 0 24 24" fill="none" xmlns="http://www.w3.org/2000/svg">
<path d="M21.9701 18.3305C21.9701 18.6905 21.8901 19.0605 21.7201 19.4205C21.5501 19.7805 21.3301 20.1205 21.0401 20.4405C20.5501 20.9805 20.0101 21.3705 19.4001 21.6205C18.8001 21.8705 18.1501 22.0005 17.4501 22.0005C16.4301 22.0005 15.3401 21.7605 14.1901 21.2705C13.0401 20.7805 11.8901 20.1205 10.7501 19.2905C9.60008 18.4505 8.51008 17.5205 7.47008 16.4905C6.44008 15.4505 5.51008 14.3605 4.68008 13.2205C3.86008 12.0805 3.20008 10.9405 2.72008 9.81049C2.24008 8.67049 2.00008 7.58049 2.00008 6.54049C2.00008 5.86049 2.12008 5.21049 2.36008 4.61049C2.60008 4.00049 2.98008 3.44049 3.51008 2.94049C4.15008 2.31049 4.85008 2.00049 5.59008 2.00049C5.87008 2.00049 6.15008 2.06049 6.40008 2.18049C6.66008 2.30049 6.89008 2.48049 7.07008 2.74049L9.39008 6.01049C9.57008 6.26049 9.70008 6.49049 9.79008 6.71049C9.88008 6.92049 9.93008 7.13049 9.93008 7.32049C9.93008 7.56049 9.86008 7.80049 9.72008 8.03049C9.59008 8.26049 9.40008 8.50049 9.16008 8.74049L8.40008 9.53049C8.29008 9.64049 8.24008 9.77049 8.24008 9.93049C8.24008 10.0105 8.25008 10.0805 8.27008 10.1605C8.30008 10.2405 8.33008 10.3005 8.35008 10.3605C8.53008 10.6905 8.84008 11.1205 9.28008 11.6405C9.73008 12.1605 10.2101 12.6905 10.7301 13.2205C11.2701 13.7505 11.7901 14.2405 12.3201 14.6905C12.8401 15.1305 13.2701 15.4305 13.6101 15.6105C13.6601 15.6305 13.7201 15.6605 13.7901 15.6905C13.8701 15.7205 13.9501 15.7305 14.0401 15.7305C14.2101 15.7305 14.3401 15.6705 14.4501 15.5605L15.2101 14.8105C15.4601 14.5605 15.7001 14.3705 15.9301 14.2505C16.1601 14.1105 16.3901 14.0405 16.6401 14.0405C16.8301 14.0405 17.0301 14.0805 17.2501 14.1705C17.4701 14.2605 17.7001 14.3905 17.9501 14.5605L21.2601 16.9105C21.5201 17.0905 21.7001 17.3005 21.8101 17.5505C21.9101 17.8005 21.9701 18.0505 21.9701 18.3305Z" stroke="#0582CA" stroke-width="2" stroke-miterlimit="10"/>
</svg>
