<svg width="40" height="40" viewBox="0 0 40 40" fill="none" xmlns="http://www.w3.org/2000/svg">
<path fill-rule="evenodd" clip-rule="evenodd" d="M7.91669 7.49998C7.91669 5.88915 9.22252 4.58331 10.8334 4.58331H29.1667C30.7775 4.58331 32.0834 5.88915 32.0834 7.49998V32.5C32.0834 34.1108 30.7775 35.4166 29.1667 35.4166H10.8334C9.22252 35.4166 7.91669 34.1108 7.91669 32.5V7.49998ZM10.8334 7.08331C10.6032 7.08331 10.4167 7.26986 10.4167 7.49998V13.75H29.5834V7.49998C29.5834 7.26986 29.3968 7.08331 29.1667 7.08331H10.8334ZM29.5834 16.25H10.4167V32.5C10.4167 32.7301 10.6032 32.9166 10.8334 32.9166H29.1667C29.3968 32.9166 29.5834 32.7301 29.5834 32.5V16.25ZM12.0834 9.99998C12.0834 9.30962 12.643 8.74998 13.3334 8.74998H14.1667C14.857 8.74998 15.4167 9.30962 15.4167 9.99998C15.4167 10.6903 14.857 11.25 14.1667 11.25H13.3334C12.643 11.25 12.0834 10.6903 12.0834 9.99998ZM12.0834 20C12.0834 19.3096 12.643 18.75 13.3334 18.75H14.1667C14.857 18.75 15.4167 19.3096 15.4167 20C15.4167 20.6903 14.857 21.25 14.1667 21.25H13.3334C12.643 21.25 12.0834 20.6903 12.0834 20Z" fill="#0582CA"/>
</svg>
