<svg xmlns="http://www.w3.org/2000/svg" data-name="Layer 1" viewBox="0 0 100 100" x="0px" y="0px" fill="#0A2A3D"><path d="M90,92H10a2,2,0,0,1-2-2V60a2,2,0,0,1,4,0V88H88V12H12V40a2,2,0,0,1-4,0V10a2,2,0,0,1,2-2H90a2,2,0,0,1,2,2V90A2,2,0,0,1,90,92Z" /><path d="M90,42H50a2,2,0,0,1-2-2V30a2,2,0,0,1,4,0v8H90a2,2,0,0,1,0,4Z" /><path d="M50,22a2,2,0,0,1-2-2V10a2,2,0,0,1,4,0V20A2,2,0,0,1,50,22Z" /><path d="M90,92H50a2,2,0,0,1-2-2V58a2,2,0,0,1,2-2H60a2,2,0,0,1,0,4H52V88H88V60H70a2,2,0,0,1,0-4H90a2,2,0,0,1,2,2V90A2,2,0,0,1,90,92Z"/></svg>