<svg width="40" height="40" viewBox="0 0 40 40" fill="none" xmlns="http://www.w3.org/2000/svg">
<path d="M9.16665 8.75C8.4763 8.75 7.91665 9.30964 7.91665 10C7.91665 10.6904 8.4763 11.25 9.16665 11.25H9.99999C10.6903 11.25 11.25 10.6904 11.25 10C11.25 9.30964 10.6903 8.75 9.99999 8.75H9.16665Z" fill="#0582CA"/>
<path fill-rule="evenodd" clip-rule="evenodd" d="M8.74999 20C8.74999 13.7868 13.7868 8.75 20 8.75C26.2132 8.75 31.25 13.7868 31.25 20C31.25 26.2132 26.2132 31.25 20 31.25C13.7868 31.25 8.74999 26.2132 8.74999 20ZM11.5874 17.5853C14.6304 16.3033 18.207 16.6761 20.9568 18.7385L21.3632 19.0433C23.4978 20.6442 26.299 21.0036 28.7499 20.0297C28.75 20.0198 28.75 20.0099 28.75 20C28.75 15.1675 24.8325 11.25 20 11.25C16.0051 11.25 12.6355 13.9272 11.5874 17.5853ZM28.296 22.7893C25.4037 23.4825 22.305 22.8746 19.8632 21.0432L19.4568 20.7385C17.0276 18.9166 13.7222 18.8855 11.2703 20.6009C11.5791 25.1531 15.3695 28.75 20 28.75C23.8572 28.75 27.1315 26.2541 28.296 22.7893Z" fill="#0582CA"/>
<path fill-rule="evenodd" clip-rule="evenodd" d="M7.7013 3.75C6.5109 3.75 5.48021 4.57679 5.22197 5.73885C3.13467 15.1317 3.13467 24.8683 5.22197 34.2612C5.48021 35.4232 6.5109 36.25 7.7013 36.25H32.2987C33.4891 36.25 34.5198 35.4232 34.778 34.2612C36.8653 24.8683 36.8653 15.1317 34.778 5.73885C34.5198 4.57679 33.4891 3.75 32.2987 3.75H7.7013ZM7.66244 6.28118C7.66649 6.26296 7.68264 6.25 7.7013 6.25H32.2987C32.3173 6.25 32.3335 6.26296 32.3375 6.28118C34.3455 15.3168 34.3455 24.6832 32.3375 33.7188C32.3335 33.737 32.3173 33.75 32.2987 33.75H7.7013C7.68264 33.75 7.66649 33.737 7.66244 33.7188C5.65451 24.6832 5.65451 15.3168 7.66244 6.28118Z" fill="#0582CA"/>
</svg>
