<svg width="40" height="40" viewBox="0 0 40 40" fill="none" xmlns="http://www.w3.org/2000/svg">
<path fill-rule="evenodd" clip-rule="evenodd" d="M20 27.9167C18.8494 27.9167 17.9167 28.8494 17.9167 30C17.9167 31.1506 18.8494 32.0834 20 32.0834C21.1506 32.0834 22.0833 31.1506 22.0833 30C22.0833 28.8494 21.1506 27.9167 20 27.9167ZM15.4167 30C15.4167 27.4687 17.4687 25.4167 20 25.4167C22.5313 25.4167 24.5833 27.4687 24.5833 30C24.5833 32.5313 22.5313 34.5834 20 34.5834C17.4687 34.5834 15.4167 32.5313 15.4167 30Z" fill="#0582CA"/>
<path fill-rule="evenodd" clip-rule="evenodd" d="M20 21.25C17.2867 21.25 14.9277 22.7752 13.737 25.0209L11.5283 23.8499C13.1352 20.819 16.325 18.75 20 18.75C23.6751 18.75 26.8649 20.819 28.4718 23.8499L26.263 25.0209C25.0724 22.7752 22.7133 21.25 20 21.25Z" fill="#0582CA"/>
<path fill-rule="evenodd" clip-rule="evenodd" d="M20 14.5834C15.3288 14.5834 11.2011 16.9116 8.71421 20.4766L6.6638 19.0463C9.59819 14.8397 14.4771 12.0834 20 12.0834C25.5229 12.0834 30.4019 14.8397 33.3363 19.0463L31.2859 20.4766C28.799 16.9116 24.6713 14.5834 20 14.5834Z" fill="#0582CA"/>
<path fill-rule="evenodd" clip-rule="evenodd" d="M20 7.91669C13.9598 7.91669 8.58687 10.7715 5.15566 15.2105L3.17767 13.6816C7.06192 8.65646 13.1529 5.41669 20 5.41669C26.8471 5.41669 32.9381 8.65646 36.8223 13.6816L34.8443 15.2105C31.4131 10.7715 26.0402 7.91669 20 7.91669Z" fill="#0582CA"/>
</svg>
